#define fs_logo_width 50
#define fs_logo_height 41
static char fs_logo_bits[] = {
  0x00, 0x00, 0x00, 0x00, 0x00, 0x00, 0x00, 0x00, 0x00, 0x00, 0x00, 0x00, 
  0x00, 0x00, 0x00, 0x00, 0x60, 0x01, 0x00, 0x00, 0x00, 0x00, 0x00, 0x10, 
  0x02, 0x00, 0x00, 0x00, 0x00, 0x00, 0x10, 0x04, 0x00, 0x00, 0x00, 0x00, 
  0x00, 0x04, 0x08, 0x00, 0x00, 0x00, 0x00, 0x00, 0x04, 0x10, 0x00, 0x00, 
  0x00, 0x00, 0x00, 0x02, 0x20, 0x00, 0x00, 0x00, 0x00, 0x00, 0x01, 0x40, 
  0x00, 0x00, 0x00, 0x00, 0x80, 0xC0, 0x81, 0x01, 0x00, 0x00, 0x00, 0x40, 
  0xE0, 0x03, 0x02, 0x00, 0x00, 0x00, 0x20, 0xF0, 0x07, 0x04, 0x00, 0x00, 
  0x00, 0x10, 0xF8, 0x0F, 0x08, 0x00, 0x00, 0x00, 0x08, 0xFC, 0x1F, 0x10, 
  0x00, 0x00, 0x00, 0x04, 0xFE, 0x7F, 0x20, 0x00, 0x00, 0x00, 0x02, 0xFF, 
  0xFF, 0x40, 0x00, 0x00, 0x00, 0x81, 0x7F, 0xFF, 0x81, 0x00, 0x00, 0x80, 
  0xC0, 0x3F, 0xFE, 0x03, 0x01, 0x00, 0x40, 0xC0, 0x1F, 0xF8, 0x07, 0x02, 
  0x00, 0x00, 0xF0, 0x0F, 0xF8, 0x07, 0x00, 0x00, 0x20, 0xF0, 0x07, 0xE0, 
  0x07, 0x00, 0x00, 0x00, 0xF0, 0x07, 0xE0, 0x07, 0x02, 0x00, 0x20, 0xE0, 
  0x81, 0x81, 0x03, 0x01, 0x00, 0x40, 0xC0, 0xC1, 0x03, 0x81, 0x00, 0x00, 
  0x00, 0x81, 0xE0, 0x07, 0x40, 0x00, 0x00, 0x00, 0x02, 0xF0, 0x0F, 0x20, 
  0x00, 0x00, 0x00, 0x04, 0xF8, 0x1F, 0x00, 0x00, 0x00, 0x00, 0x08, 0xFC, 
  0x3F, 0x18, 0x00, 0x00, 0x00, 0x10, 0xF8, 0x1F, 0x00, 0x00, 0x00, 0x00, 
  0x20, 0xF0, 0x0F, 0x04, 0x00, 0x00, 0x00, 0x40, 0xE0, 0x07, 0x02, 0x00, 
  0x00, 0x00, 0x80, 0x80, 0x03, 0x01, 0x00, 0x00, 0x00, 0x00, 0x01, 0x80, 
  0x00, 0x00, 0x00, 0x00, 0x00, 0x02, 0x40, 0x00, 0x00, 0x00, 0x00, 0x00, 
  0x04, 0x20, 0x00, 0x00, 0x00, 0x00, 0x00, 0x08, 0x10, 0x00, 0x00, 0x00, 
  0x00, 0x00, 0x10, 0x08, 0x00, 0x00, 0x00, 0x00, 0x00, 0x40, 0x04, 0x00, 
  0x00, 0x00, 0x00, 0x00, 0x80, 0x03, 0x00, 0x00, 0x00, 0x00, 0x00, 0x00, 
  0x00, 0x00, 0x00, 0x00, 0x00, 0x00, 0x00, 0x20, 0x00, 0x00, 0x00, };
